<svg width="15" height="15" viewBox="0 0 15 15" fill="none" xmlns="http://www.w3.org/2000/svg">
<path d="M3.84766 11.9531C3.79557 12.0117 3.73047 12.002 3.65234 11.9238C3.56771 11.8522 3.55469 11.7904 3.61328 11.7383C3.66536 11.6797 3.73047 11.6895 3.80859 11.7676C3.88672 11.8392 3.89974 11.901 3.84766 11.9531ZM3.4375 11.3574C3.49609 11.4355 3.49609 11.4974 3.4375 11.543C3.38542 11.582 3.33008 11.5592 3.27148 11.4746C3.21289 11.39 3.21289 11.3314 3.27148 11.2988C3.33008 11.2533 3.38542 11.2728 3.4375 11.3574ZM2.8418 10.7715C2.80924 10.8171 2.76693 10.8236 2.71484 10.791C2.64974 10.7585 2.62695 10.7194 2.64648 10.6738C2.66602 10.6413 2.70833 10.6348 2.77344 10.6543C2.83854 10.6868 2.86133 10.7259 2.8418 10.7715ZM3.14453 11.1035C3.10547 11.1491 3.05339 11.1393 2.98828 11.0742C2.92969 11.0026 2.92318 10.9505 2.96875 10.918C3.00781 10.8789 3.0599 10.8887 3.125 10.9473C3.18359 11.0189 3.1901 11.071 3.14453 11.1035ZM4.4043 12.1973C4.37826 12.2754 4.31641 12.2949 4.21875 12.2559C4.10807 12.2298 4.06576 12.181 4.0918 12.1094C4.11784 12.0378 4.17969 12.015 4.27734 12.041C4.38151 12.0736 4.42383 12.1257 4.4043 12.1973ZM5.01953 12.2461C5.01953 12.3177 4.96745 12.3535 4.86328 12.3535C4.7526 12.3665 4.69727 12.3307 4.69727 12.2461C4.69727 12.1745 4.74935 12.1387 4.85352 12.1387C4.96419 12.1257 5.01953 12.1615 5.01953 12.2461ZM5.58594 12.1484C5.59896 12.2135 5.55339 12.2591 5.44922 12.2852C5.34505 12.3112 5.28646 12.2852 5.27344 12.207C5.26042 12.1289 5.30599 12.0801 5.41016 12.0605C5.51432 12.0475 5.57292 12.0768 5.58594 12.1484ZM15 2.8125V12.1875C15 12.9622 14.7249 13.6247 14.1748 14.1748C13.6247 14.7249 12.9622 15 12.1875 15H10C9.89583 15 9.81608 14.9967 9.76074 14.9902C9.7054 14.9837 9.64193 14.9674 9.57031 14.9414C9.4987 14.9154 9.44661 14.8682 9.41406 14.7998C9.38151 14.7314 9.36523 14.6419 9.36523 14.5312V12.1973C9.36523 11.5658 9.19596 11.1035 8.85742 10.8105C9.22852 10.7715 9.56217 10.7129 9.8584 10.6348C10.1546 10.5566 10.4606 10.4297 10.7764 10.2539C11.0921 10.0781 11.3558 9.86165 11.5674 9.60449C11.779 9.34733 11.9515 9.00553 12.085 8.5791C12.2184 8.15267 12.2852 7.66276 12.2852 7.10938C12.2852 6.32161 12.028 5.65104 11.5137 5.09766C11.7546 4.50521 11.7285 3.84115 11.4355 3.10547C11.2533 3.04688 10.9896 3.08268 10.6445 3.21289C10.2995 3.3431 10 3.48633 9.74609 3.64258L9.375 3.87695C8.76953 3.70768 8.14453 3.62305 7.5 3.62305C6.85547 3.62305 6.23047 3.70768 5.625 3.87695C5.52083 3.80534 5.38249 3.71745 5.20996 3.61328C5.03743 3.50911 4.76562 3.38379 4.39453 3.2373C4.02344 3.09082 3.74349 3.04688 3.55469 3.10547C3.26823 3.84115 3.24544 4.50521 3.48633 5.09766C2.97201 5.65104 2.71484 6.32161 2.71484 7.10938C2.71484 7.66276 2.78158 8.15104 2.91504 8.57422C3.0485 8.9974 3.2194 9.33919 3.42773 9.59961C3.63607 9.86003 3.89811 10.0781 4.21387 10.2539C4.52962 10.4297 4.83561 10.5566 5.13184 10.6348C5.42806 10.7129 5.76172 10.7715 6.13281 10.8105C5.8724 11.0449 5.71289 11.3802 5.6543 11.8164C5.51758 11.8815 5.37109 11.9303 5.21484 11.9629C5.05859 11.9954 4.87305 12.0117 4.6582 12.0117C4.44336 12.0117 4.23014 11.9417 4.01855 11.8018C3.80697 11.6618 3.6263 11.4583 3.47656 11.1914C3.35286 10.9831 3.19499 10.8138 3.00293 10.6836C2.81087 10.5534 2.64974 10.4753 2.51953 10.4492L2.32422 10.4199C2.1875 10.4199 2.0931 10.4346 2.04102 10.4639C1.98893 10.4932 1.97266 10.5306 1.99219 10.5762C2.01172 10.6217 2.04102 10.6673 2.08008 10.7129C2.11914 10.7585 2.16146 10.7975 2.20703 10.8301L2.27539 10.8789C2.41862 10.944 2.56022 11.0677 2.7002 11.25C2.84017 11.4323 2.94271 11.5983 3.00781 11.748L3.10547 11.9727C3.1901 12.2201 3.33333 12.4202 3.53516 12.5732C3.73698 12.7262 3.95508 12.8239 4.18945 12.8662C4.42383 12.9085 4.65007 12.9313 4.86816 12.9346C5.08626 12.9378 5.26693 12.9264 5.41016 12.9004L5.63477 12.8613C5.63477 13.1087 5.63639 13.444 5.63965 13.8672C5.6429 14.2904 5.64453 14.5117 5.64453 14.5312C5.64453 14.6745 5.60872 14.7835 5.53711 14.8584C5.46549 14.9333 5.39388 14.9756 5.32227 14.9854C5.25065 14.9951 5.14323 15 5 15H2.8125C2.03776 15 1.37533 14.7249 0.825195 14.1748C0.275065 13.6247 0 12.9622 0 12.1875V2.8125C0 2.03776 0.275065 1.37533 0.825195 0.825195C1.37533 0.275065 2.03776 0 2.8125 0H12.1875C12.9622 0 13.6247 0.275065 14.1748 0.825195C14.7249 1.37533 15 2.03776 15 2.8125Z" fill="white"/>
</svg>
