<svg width="15" height="15" viewBox="0 0 15 15" fill="none" xmlns="http://www.w3.org/2000/svg">
<path d="M13.8908 0.000104872H1.10915C0.965477 -0.00187857 0.822813 0.0242902 0.68931 0.0771166C0.555808 0.129943 0.434082 0.208392 0.331085 0.307985C0.228087 0.407577 0.145836 0.526361 0.0890281 0.657553C0.0322201 0.788745 0.0019681 0.929775 0 1.07259V13.9274C0.0019681 14.0702 0.0322201 14.2113 0.0890281 14.3424C0.145836 14.4736 0.228087 14.5924 0.331085 14.692C0.434082 14.7916 0.555808 14.8701 0.68931 14.9229C0.822813 14.9757 0.965477 15.0019 1.10915 14.9999H13.8908C14.0345 15.0019 14.1772 14.9757 14.3107 14.9229C14.4442 14.8701 14.5659 14.7916 14.6689 14.692C14.7719 14.5924 14.8542 14.4736 14.911 14.3424C14.9678 14.2113 14.998 14.0702 15 13.9274V1.07259C14.998 0.929775 14.9678 0.788745 14.911 0.657553C14.8542 0.526361 14.7719 0.407577 14.6689 0.307985C14.5659 0.208392 14.4442 0.129943 14.3107 0.0771166C14.1772 0.0242902 14.0345 -0.00187857 13.8908 0.000104872ZM4.5498 12.5549H2.28622V5.80502H4.5498V12.5549ZM3.41801 4.86004C3.10583 4.86004 2.80644 4.73677 2.5857 4.51736C2.36496 4.29794 2.24095 4.00035 2.24095 3.69005C2.24095 3.37975 2.36496 3.08216 2.5857 2.86275C2.80644 2.64334 3.10583 2.52007 3.41801 2.52007C3.58377 2.50138 3.75164 2.51771 3.91062 2.56798C4.0696 2.61825 4.2161 2.70133 4.34054 2.81179C4.46497 2.92224 4.56453 3.05757 4.6327 3.20892C4.70087 3.36027 4.73611 3.52423 4.73611 3.69005C4.73611 3.85588 4.70087 4.01983 4.6327 4.17118C4.56453 4.32254 4.46497 4.45787 4.34054 4.56832C4.2161 4.67877 4.0696 4.76185 3.91062 4.81213C3.75164 4.8624 3.58377 4.87872 3.41801 4.86004ZM12.7138 12.5549H10.4502V8.93248C10.4502 8.02499 10.1258 7.4325 9.30332 7.4325C9.04879 7.43435 8.80095 7.51371 8.59319 7.65988C8.38542 7.80604 8.22773 8.012 8.14135 8.24999C8.0823 8.42627 8.05672 8.61191 8.0659 8.79748V12.5474H5.80231C5.80231 12.5474 5.80231 6.41251 5.80231 5.79752H8.0659V6.75001C8.27153 6.39534 8.5706 6.10316 8.93092 5.90492C9.29123 5.70669 9.69912 5.60992 10.1107 5.62503C11.6197 5.62503 12.7138 6.59251 12.7138 8.66998V12.5549Z" fill="#0288D1"/>
</svg>
