<svg width="15" height="15" viewBox="0 0 15 15" fill="none" xmlns="http://www.w3.org/2000/svg">
<path d="M15 3.4125C14.9916 3.08893 14.9665 2.766 14.925 2.445C14.869 2.16384 14.7757 1.89143 14.6475 1.635C14.5134 1.35683 14.3334 1.10327 14.115 0.885C13.8946 0.669153 13.6415 0.489443 13.365 0.3525C13.1082 0.226833 12.8358 0.13603 12.555 0.0824999C12.237 0.0348745 11.9164 0.00732007 11.595 0H3.4125C3.08893 0.0084273 2.766 0.0334602 2.445 0.0749999C2.16384 0.131001 1.89143 0.224328 1.635 0.3525C1.35683 0.486553 1.10327 0.666579 0.885 0.885C0.669153 1.10543 0.489443 1.35855 0.3525 1.635C0.226833 1.89177 0.13603 2.16418 0.0824999 2.445C0.0348745 2.76295 0.00732007 3.08359 0 3.405C0 3.5475 0 3.75 0 3.81V11.19C0 11.2725 0 11.4525 0 11.5875C0.0084273 11.9111 0.0334602 12.234 0.0749999 12.555C0.131001 12.8362 0.224328 13.1086 0.3525 13.365C0.486553 13.6432 0.666579 13.8967 0.885 14.115C1.10543 14.3308 1.35855 14.5106 1.635 14.6475C1.89177 14.7732 2.16418 14.864 2.445 14.9175C2.76295 14.9651 3.08359 14.9927 3.405 15H11.5875C11.9111 14.9916 12.234 14.9665 12.555 14.925C12.8362 14.869 13.1086 14.7757 13.365 14.6475C13.6432 14.5134 13.8967 14.3334 14.115 14.115C14.3308 13.8946 14.5106 13.6415 14.6475 13.365C14.7732 13.1082 14.864 12.8358 14.9175 12.555C14.9651 12.237 14.9927 11.9164 15 11.595C15 11.4525 15 11.2725 15 11.19V3.81C15 3.75 15 3.5475 15 3.4125ZM7.6725 12.75C6.7718 12.7456 5.88685 12.5134 5.1 12.075L2.25 12.825L3 10.035C2.51634 9.22234 2.25749 8.29567 2.25 7.35C2.25299 6.28719 2.5704 5.24904 3.16227 4.36628C3.75414 3.48352 4.59399 2.79565 5.57605 2.38929C6.5581 1.98293 7.63845 1.87625 8.68101 2.0827C9.72358 2.28915 10.6817 2.7995 11.4348 3.54945C12.1879 4.29941 12.7022 5.25544 12.913 6.29714C13.1238 7.33884 13.0216 8.41962 12.6193 9.40336C12.2171 10.3871 11.5327 11.2298 10.6524 11.8253C9.77211 12.4209 8.73528 12.7426 7.6725 12.75ZM7.6725 2.9025C6.87736 2.9116 6.09883 3.13124 5.41617 3.53905C4.73351 3.94687 4.17111 4.5283 3.78622 5.22414C3.40134 5.91998 3.20771 6.70539 3.22506 7.5004C3.24241 8.2954 3.47012 9.07161 3.885 9.75L3.99 9.9225L3.54 11.565L5.25 11.1L5.415 11.1975C6.09718 11.5993 6.8733 11.814 7.665 11.82C8.85847 11.82 10.0031 11.3459 10.847 10.502C11.6909 9.65807 12.165 8.51347 12.165 7.32C12.165 6.12653 11.6909 4.98193 10.847 4.13802C10.0031 3.29411 8.85847 2.82 7.665 2.82L7.6725 2.9025ZM10.2975 9.2925C10.1993 9.45635 10.0677 9.59775 9.91141 9.70757C9.75509 9.81738 9.57745 9.89316 9.39 9.93C9.1099 9.9812 8.82154 9.96317 8.55 9.8775C8.29451 9.79762 8.04406 9.70245 7.8 9.5925C6.87281 9.12725 6.08208 8.42955 5.505 7.5675C5.19141 7.16811 5.00114 6.68591 4.9575 6.18C4.95303 5.96984 4.99279 5.76109 5.07419 5.56728C5.15559 5.37348 5.27681 5.19894 5.43 5.055C5.47512 5.00384 5.53048 4.96272 5.59249 4.9343C5.6545 4.90588 5.72179 4.89079 5.79 4.89H6C6.0825 4.89 6.195 4.89 6.3 5.1225C6.405 5.355 6.6825 6.0525 6.72 6.12C6.73843 6.15598 6.74804 6.19582 6.74804 6.23625C6.74804 6.27667 6.73843 6.31652 6.72 6.3525C6.68685 6.434 6.64131 6.50989 6.585 6.5775C6.5175 6.66 6.4425 6.7575 6.3825 6.8175C6.3225 6.8775 6.2475 6.9525 6.3225 7.0875C6.52657 7.43189 6.77916 7.74511 7.0725 8.0175C7.39194 8.29977 7.75718 8.5255 8.1525 8.685C8.2875 8.7525 8.37 8.745 8.445 8.685C8.52 8.625 8.7825 8.295 8.8725 8.16C8.9625 8.025 9.0525 8.0475 9.1725 8.0925C9.2925 8.1375 9.96 8.46 10.095 8.5275C10.23 8.595 10.3125 8.625 10.35 8.685C10.3825 8.88129 10.3645 9.08264 10.2975 9.27V9.2925Z" fill="#34A853"/>
</svg>
